<svg xmlns="http://www.w3.org/2000/svg" xmlns:xlink="http://www.w3.org/1999/xlink" viewBox="0 0 676.66 583.91"><defs><style>.cls-1,.cls-5{fill:none;}.cls-2{fill:#f7e7da;}.cls-3{fill:#707fe0;}.cls-4{fill:#f7cbd1;}.cls-5{stroke:#191919;stroke-linecap:round;stroke-miterlimit:10;stroke-width:0.75px;}.cls-6{fill:#191919;}.cls-7{fill:#8497e0;}.cls-8{clip-path:url(#clip-path);}.cls-9{fill:#cc8765;}.cls-10{clip-path:url(#clip-path-2);}</style><clipPath id="clip-path" transform="translate(-35.51 -29.99)"><rect class="cls-1" x="9.2" y="212.09" width="214.17" height="287.74" transform="translate(232.57 711.92) rotate(180)"/></clipPath><clipPath id="clip-path-2" transform="translate(-35.51 -29.99)"><rect class="cls-1" x="524.31" y="212.09" width="214.17" height="287.74"/></clipPath></defs><g id="OBJECTS"><path class="cls-2" d="M354.16,57.44S349.7,26.4,333,30.33,314.79,66,325.46,61.06s-18.43-27.82-24.32-11,14.12,29.3,7.72,18-56.27,6.22-37.75,7.62,131.82-.44,122-3.89-35.32-3.13-35.32-3.13,19.23-12.75,6.89-20.9S343,67.33,348.56,62.39Z" transform="translate(-35.51 -29.99)"/><path class="cls-3" d="M359.42,78.35s7.74,10.33,3.62,9.11S359.42,78.35,359.42,78.35Z" transform="translate(-35.51 -29.99)"/><path class="cls-3" d="M350.27,73.75s7.74,10.32,3.62,9.11S350.27,73.75,350.27,73.75Z" transform="translate(-35.51 -29.99)"/><path class="cls-3" d="M346.83,87.07s10.09,16.13,6,14.92S346.83,87.07,346.83,87.07Z" transform="translate(-35.51 -29.99)"/><path class="cls-3" d="M323.61,75s10.08,16.12,6,14.91S323.61,75,323.61,75Z" transform="translate(-35.51 -29.99)"/><path class="cls-3" d="M309.26,74.34s7.74,10.32,3.62,9.11S309.26,74.34,309.26,74.34Z" transform="translate(-35.51 -29.99)"/><path class="cls-3" d="M312.89,89.3s7.73,10.32,3.61,9.11S312.89,89.3,312.89,89.3Z" transform="translate(-35.51 -29.99)"/><path class="cls-3" d="M324.68,66.89s7.74,10.33,3.62,9.11S324.68,66.89,324.68,66.89Z" transform="translate(-35.51 -29.99)"/><path class="cls-3" d="M300.92,77.86s7.74,10.33,3.62,9.11S300.92,77.86,300.92,77.86Z" transform="translate(-35.51 -29.99)"/><path class="cls-4" d="M513.73,207.24s13.4-14.86,6.27-25.5S507.19,153,507.19,153,485,180.28,513.73,207.24Z" transform="translate(-35.51 -29.99)"/><path class="cls-5" d="M498.9,241.29s21.67-36.15,13.34-56.95" transform="translate(-35.51 -29.99)"/><path class="cls-6" d="M499.84,169.27a52.24,52.24,0,0,0,11.37-5.18c-1.68-4.22-2.93-7.84-3.56-9.72L505,156.18A43.29,43.29,0,0,0,499.84,169.27Z" transform="translate(-35.51 -29.99)"/><path class="cls-4" d="M533.07,211.59s12.27-22,27.84-17.85,39.51,3.57,39.51,3.57S576.88,234.85,533.07,211.59Z" transform="translate(-35.51 -29.99)"/><path class="cls-4" d="M542.3,182s-17.23-28.11-6.11-39.79S558.77,96,558.77,96,599,154.41,542.3,182Z" transform="translate(-35.51 -29.99)"/><path class="cls-5" d="M498.51,243.11s34.28-40.53,62.46-39.06" transform="translate(-35.51 -29.99)"/><path class="cls-5" d="M521.35,221.28S537.52,209.17,542.3,182a229.67,229.67,0,0,1,14.16-47.17" transform="translate(-35.51 -29.99)"/><path class="cls-4" d="M486.21,168.46s-4.81-24.75,9.78-31.6,32.51-22.74,32.51-22.74S534.71,158,486.21,168.46Z" transform="translate(-35.51 -29.99)"/><path class="cls-4" d="M474.19,139.87s-31.29-10.38-30.32-26.48-12.5-49.85-12.5-49.85S499.72,82.27,474.19,139.87Z" transform="translate(-35.51 -29.99)"/><path class="cls-5" d="M480.11,214.83s.08-53.08,22.57-70.12" transform="translate(-35.51 -29.99)"/><path class="cls-5" d="M483.5,183.42s4.56-19.68-9.31-43.55a229,229,0,0,1-19.58-45.19" transform="translate(-35.51 -29.99)"/><path class="cls-3" d="M222.59,105.54s2.9-15.84-15-10.93-6.73-11.22,8.28-6.92,7,14.67,4.63,3.89-12.58-16.31-9.92-21,9.44-5.53,13.67,7.58,8.33,30.19,4.52,20.47,3.63-36.78,9.41-30.91-2.48,41.73-7.38,36.08,21.46-29.4,25.09-22.13-18.48,28.19-19.81,22.46,19.32-13,26.91-2.29-8.55,4-17.6,5.17a175,175,0,0,1-19.15,1Z" transform="translate(-35.51 -29.99)"/><path class="cls-6" d="M228.67,107.45s-2-9.32-9.07-11.51c0,0,2.1,22.69,21,11.17C240.64,107.11,236.65,103.45,228.67,107.45Z" transform="translate(-35.51 -29.99)"/><path class="cls-5" d="M227.6,107.93s-29.63,66.9,8.79,116.75" transform="translate(-35.51 -29.99)"/><path class="cls-5" d="M231.91,98.2S245.16,86,257.79,87.71" transform="translate(-35.51 -29.99)"/><path class="cls-6" d="M257.07,86.05a2.16,2.16,0,0,0-2.46,1.7c0,1,1,1.83,2.33,1.88s2.42-.71,2.45-1.7S258.39,86.1,257.07,86.05Z" transform="translate(-35.51 -29.99)"/><path class="cls-5" d="M231.05,99.55s8.48-15.93,21-18.44" transform="translate(-35.51 -29.99)"/><path class="cls-6" d="M250.79,79.78c-1.26.39-2,1.47-1.76,2.42a2.17,2.17,0,0,0,2.82,1c1.26-.38,2.05-1.47,1.76-2.41S252.06,79.39,250.79,79.78Z" transform="translate(-35.51 -29.99)"/><path class="cls-5" d="M231.05,99.55s2.52-2.75,12.08-1.55" transform="translate(-35.51 -29.99)"/><path class="cls-6" d="M243,96.09c-1.11.13-1.93.92-1.84,1.76a1.84,1.84,0,0,0,2.19,1.31c1.11-.13,1.93-.92,1.83-1.76A1.83,1.83,0,0,0,243,96.09Z" transform="translate(-35.51 -29.99)"/><path class="cls-6" d="M238.88,93.73c-1.11.13-1.93.92-1.83,1.77a1.82,1.82,0,0,0,2.18,1.3c1.11-.12,1.93-.91,1.84-1.76A1.85,1.85,0,0,0,238.88,93.73Z" transform="translate(-35.51 -29.99)"/><path class="cls-6" d="M232.25,87.23a1.6,1.6,0,1,0,1.92-1.67C233.34,85.39,232.48,86.14,232.25,87.23Z" transform="translate(-35.51 -29.99)"/><path class="cls-5" d="M231.05,99.55s-3-13.66,2.72-22.78" transform="translate(-35.51 -29.99)"/><path class="cls-6" d="M232.19,76.7a1.6,1.6,0,1,0,2.3-1.09A1.84,1.84,0,0,0,232.19,76.7Z" transform="translate(-35.51 -29.99)"/><path class="cls-3" d="M479.71,107s7.33-3.42-5.5-12.77c-10-7.26-.66-17.81,6.27-6.69,7.09,11.35.67,17.13,2.79,7.9s-4.8-15.19.06-19.94c3.33-3.25,14.42,1.53,9.79,13-4.43,11-6.65,24.36-6,15.43s16.35-27.14,18.66-20.47-17.28,31.4-19,25.22,27.71-14.86,27.57-7.9c-.24,12.21-24.68,15-23.6,10.1s19.75-3,21.68,8.13-8.11,0-15.54-2.48a146.18,146.18,0,0,1-15.2-6.23Z" transform="translate(-35.51 -29.99)"/><path class="cls-6" d="M483.72,110.69s1.85-8-2.79-12.26c0,0-6.73,18.35,12.18,16.4C493.11,114.83,491.37,110.53,483.72,110.69Z" transform="translate(-35.51 -29.99)"/><path class="cls-5" d="M482.71,110.66s-47.57,40.89-36.17,93.63" transform="translate(-35.51 -29.99)"/><path class="cls-3" d="M400.26,88.6s-2.2-11.45,6.26-9.75c18.16,3.64,14.16-13.57-.59-8.44s-6.2,15-4.41,4.14,11.65-17,8.74-21.56-9.74-5-13.23,8.33S390.38,91.93,393.65,82,388,45.49,382.54,51.66s4.8,41.54,9.37,35.62-23.05-28.15-26.27-20.7,20,27.12,21,21.32S359.07,84,364,96.2c5,12.36,12.74-5.55,21.84-4.94s10.87,0,10.87,0Z" transform="translate(-35.51 -29.99)"/><path class="cls-6" d="M394.29,90.85s1.52-9.43,8.42-12c0,0-.84,22.77-20.39,12.33C382.32,91.18,386.1,87.3,394.29,90.85Z" transform="translate(-35.51 -29.99)"/><path class="cls-5" d="M395.39,91.26s33.3,65.16-2.29,117.06" transform="translate(-35.51 -29.99)"/><path class="cls-4" d="M198.61,242s-20.43-6.73-19.45-20.45-3.37-33.67-3.37-33.67S211,201.5,198.61,242Z" transform="translate(-35.51 -29.99)"/><path class="cls-5" d="M230.59,265.83s-39.48-22.18-42.8-46" transform="translate(-35.51 -29.99)"/><path class="cls-6" d="M197.28,207.91c-3.06.62-13.27,3.38-18.19,3.1-.68-4.83-2.57-19.53-3-21.62l3.41.29C182.63,191.42,192.82,198.22,197.28,207.91Z" transform="translate(-35.51 -29.99)"/><path class="cls-4" d="M254.9,173.64s13.55-29,.54-40.4-15.22-29.92-15.22-29.92S208,148.36,254.9,173.64Z" transform="translate(-35.51 -29.99)"/><path class="cls-5" d="M248.54,218.47s15.77-54.82-2.35-79.13" transform="translate(-35.51 -29.99)"/><path class="cls-6" d="M337.37,138.35s4.11,3.14-1.69,10.87c0,0-4.64-11.2-11.26-11.64C324.42,137.58,326.5,133.76,337.37,138.35Z" transform="translate(-35.51 -29.99)"/><path class="cls-4" d="M280,173s1.14-33.54,16.34-41.86,41,7.25,41,7.25S307.21,127.72,280,173Z" transform="translate(-35.51 -29.99)"/><path class="cls-5" d="M276.76,216.56s-3.42-56.94,19.58-76.71" transform="translate(-35.51 -29.99)"/><path class="cls-6" d="M606.43,245.15s2.4,3.54-4.18,8.1c0,0-.71-10-5.8-12.1C596.45,241.15,599.09,238.69,606.43,245.15Z" transform="translate(-35.51 -29.99)"/><path class="cls-4" d="M552.29,257.32s9.67-26.06,23.79-28.61,30.35,16.44,30.35,16.44S585.52,228.9,552.29,257.32Z" transform="translate(-35.51 -29.99)"/><path class="cls-5" d="M538.32,290.72s12.23-45.63,35.47-55.14" transform="translate(-35.51 -29.99)"/><path class="cls-6" d="M154.6,277.09s-1.87,4,5.63,7.59c0,0-.95-10.37,3.91-13.35C164.14,271.33,161,269.26,154.6,277.09Z" transform="translate(-35.51 -29.99)"/><path class="cls-4" d="M212,280.5s-14.25-25-29.12-25.3-28.3,21.89-28.3,21.89S173.28,257,212,280.5Z" transform="translate(-35.51 -29.99)"/><path class="cls-5" d="M231.88,312.34s-20.12-44.64-45.49-50.49" transform="translate(-35.51 -29.99)"/><path class="cls-4" d="M206,199.77s-8.69-25.65-26-24.27-42.46-3.9-42.46-3.9S155.15,215.86,206,199.77Z" transform="translate(-35.51 -29.99)"/><path class="cls-4" d="M202,166.69s23.66-26.36,14.18-40.86-14.9-53.19-14.9-53.19S147.45,126.54,202,166.69Z" transform="translate(-35.51 -29.99)"/><path class="cls-5" d="M236.39,239.79S208,190.3,178,186.39" transform="translate(-35.51 -29.99)"/><path class="cls-5" d="M216.48,212.29s-14.73-15.94-14.51-45.6a246.9,246.9,0,0,0-5.81-52.61" transform="translate(-35.51 -29.99)"/><path class="cls-5" d="M391.59,83.15S378.33,70.91,365.7,72.66" transform="translate(-35.51 -29.99)"/><path class="cls-6" d="M366.43,71c1.32,0,2.42.71,2.45,1.7s-1,1.83-2.32,1.88a2.16,2.16,0,0,1-2.46-1.7C364.06,71.89,365.1,71.05,366.43,71Z" transform="translate(-35.51 -29.99)"/><path class="cls-5" d="M392.44,84.5s-8.47-15.93-21-18.44" transform="translate(-35.51 -29.99)"/><path class="cls-6" d="M372.7,64.73c1.26.39,2.05,1.47,1.76,2.42s-1.55,1.39-2.82,1-2.05-1.47-1.75-2.42A2.16,2.16,0,0,1,372.7,64.73Z" transform="translate(-35.51 -29.99)"/><path class="cls-5" d="M392.44,84.5s-2.51-2.76-12.08-1.56" transform="translate(-35.51 -29.99)"/><path class="cls-6" d="M380.54,81c1.11.12,1.93.91,1.83,1.76a1.85,1.85,0,0,1-2.19,1.31c-1.11-.13-1.93-.92-1.83-1.77A1.83,1.83,0,0,1,380.54,81Z" transform="translate(-35.51 -29.99)"/><path class="cls-6" d="M384.62,78.68c1.11.13,1.93.92,1.83,1.77a1.84,1.84,0,0,1-2.19,1.3c-1.11-.13-1.93-.92-1.83-1.76A1.84,1.84,0,0,1,384.62,78.68Z" transform="translate(-35.51 -29.99)"/><ellipse class="cls-6" cx="389.73" cy="72.49" rx="1.55" ry="2.02" transform="translate(-42.11 50.54) rotate(-11.7)"/><path class="cls-5" d="M392.44,84.5s3-13.66-2.71-22.78" transform="translate(-35.51 -29.99)"/><path class="cls-6" d="M391.3,61.65a1.6,1.6,0,1,1-2.75,1.41,1.6,1.6,0,1,1,2.75-1.41Z" transform="translate(-35.51 -29.99)"/><path class="cls-5" d="M487.26,107.88s12.21-9.5,22.87-7.1" transform="translate(-35.51 -29.99)"/><path class="cls-6" d="M509.63,99.31a1.86,1.86,0,0,0-2.22,1.28c-.1.84.72,1.64,1.85,1.77a1.85,1.85,0,0,0,2.22-1.27C511.58,100.24,510.76,99.45,509.63,99.31Z" transform="translate(-35.51 -29.99)"/><path class="cls-5" d="M486.43,109s8.39-13,19.24-14.25" transform="translate(-35.51 -29.99)"/><path class="cls-6" d="M504.72,93.51c-1.11.24-1.86,1.11-1.68,1.93a1.86,1.86,0,0,0,2.34,1.07c1.1-.24,1.85-1.11,1.67-1.94A1.84,1.84,0,0,0,504.72,93.51Z" transform="translate(-35.51 -29.99)"/><path class="cls-5" d="M486.43,109s2.35-2.17,10.44-.46" transform="translate(-35.51 -29.99)"/><path class="cls-6" d="M496.85,106.88c-1,0-1.71.64-1.69,1.37a1.8,1.8,0,1,0,1.69-1.37Z" transform="translate(-35.51 -29.99)"/><path class="cls-6" d="M493.54,104.57c-1,0-1.72.65-1.69,1.38a1.57,1.57,0,0,0,1.77,1.27c1,0,1.72-.65,1.69-1.38A1.57,1.57,0,0,0,493.54,104.57Z" transform="translate(-35.51 -29.99)"/><path class="cls-6" d="M488.35,98.54a1.37,1.37,0,1,0,2.54.74,1.37,1.37,0,1,0-2.54-.74Z" transform="translate(-35.51 -29.99)"/><path class="cls-5" d="M486.43,109s-1.57-11.89,4-19.27" transform="translate(-35.51 -29.99)"/><path class="cls-6" d="M489.05,89.54a1.57,1.57,0,0,0,.2,2.17,1.8,1.8,0,1,0-.2-2.17Z" transform="translate(-35.51 -29.99)"/><path class="cls-6" d="M407.69,130.91s-6.37-32.86,16.25-38.6c0,0-3,9.24-7.39,14S407,126.66,407.69,130.91Z" transform="translate(-35.51 -29.99)"/><path class="cls-6" d="M444.47,183.9s5.28-28.21,25.12-25.66c0,0-5.34,6.41-10.29,8.8S445.3,180.3,444.47,183.9Z" transform="translate(-35.51 -29.99)"/><path class="cls-6" d="M460.56,137.34s20.49-20.1,7.33-35.16c0,0-2.36,8-1.58,13.45S463.08,134.65,460.56,137.34Z" transform="translate(-35.51 -29.99)"/><path class="cls-6" d="M219.19,186.23s-9.14-40.51,23.33-47.58c0,0-4.37,11.39-10.61,17.2S218.27,181,219.19,186.23Z" transform="translate(-35.51 -29.99)"/><path class="cls-6" d="M409.39,150.68s-5.07-33.09-28.3-30.88c0,0,6,7.68,11.65,10.65S408.56,146.46,409.39,150.68Z" transform="translate(-35.51 -29.99)"/><ellipse class="cls-3" cx="253.05" cy="253.26" rx="38.36" ry="37.69" transform="translate(-101.19 60.23) rotate(-17.93)"/><path class="cls-3" d="M275.94,344.64a30.91,30.91,0,0,1-39.84,16.65,29.63,29.63,0,0,1-16.48-39.1,30.91,30.91,0,0,1,39.83-16.65A29.65,29.65,0,0,1,275.94,344.64Z" transform="translate(-35.51 -29.99)"/><path class="cls-3" d="M396.47,386.4a30.9,30.9,0,0,1-39.83,16.65A29.64,29.64,0,0,1,340.16,364,30.91,30.91,0,0,1,380,347.3,29.64,29.64,0,0,1,396.47,386.4Z" transform="translate(-35.51 -29.99)"/><ellipse class="cls-3" cx="509.98" cy="262.38" rx="38.13" ry="41.95" transform="translate(-5.64 546.11) rotate(-60.39)"/><path class="cls-3" d="M473.18,236.43c-12.85,16.73-38.4,19.22-57.08,5.57s-23.4-38.28-10.55-55,38.4-19.23,57.08-5.57S486,219.7,473.18,236.43Z" transform="translate(-35.51 -29.99)"/><ellipse class="cls-3" cx="390.5" cy="191.18" rx="42.26" ry="37.85" transform="translate(-40.95 -18.45) rotate(-1.68)"/><path class="cls-3" d="M222.67,261.06c.16-2.1,15.51-47.28,57.81-76.5C333.39,148,405.27,165.14,430,173.92c36.86,13.12,74,31.54,99.2,61.27,27.13,32.05,32.11,85.33,16.34,116.82-19.69,39.3-70.6,32.63-101.9,20.16,0,0-36.83,36.66-101.72,22.33-27.69-6.12-64.82-5.64-96.69-33.3C203.86,325.34,222.48,263.44,222.67,261.06Z" transform="translate(-35.51 -29.99)"/><path class="cls-5" d="M478.11,300s-68.44-8.41-34.52,72.17" transform="translate(-35.51 -29.99)"/><path class="cls-5" d="M444.27,306.42s-17.66-32.19,12.53-45.3" transform="translate(-35.51 -29.99)"/><path class="cls-5" d="M266.75,243s86.05-.28,122.34,59.25" transform="translate(-35.51 -29.99)"/><path class="cls-5" d="M334.58,186.21s-38,39.35-.72,71" transform="translate(-35.51 -29.99)"/><path class="cls-5" d="M263.9,233.45s5.49,7.43-.15,20.9" transform="translate(-35.51 -29.99)"/><path class="cls-5" d="M401.14,298.64s-11.59-5.66-15.05,12.87" transform="translate(-35.51 -29.99)"/><path class="cls-5" d="M334.62,177.51s-4.67,6.67,5.58,15" transform="translate(-35.51 -29.99)"/><path class="cls-5" d="M456.77,252.08s-4.67,6.68,5.58,15" transform="translate(-35.51 -29.99)"/><path class="cls-5" d="M485,295.59s-8.29.3-9.1,13.31" transform="translate(-35.51 -29.99)"/><path class="cls-5" d="M221.1,272.49s10,39.07,67.53,31.11" transform="translate(-35.51 -29.99)"/><path class="cls-5" d="M248.21,362.93s31,5.54,33.43-26" transform="translate(-35.51 -29.99)"/><path class="cls-5" d="M270.11,333.82s15.36,8.22,17.47-1.94" transform="translate(-35.51 -29.99)"/><path class="cls-5" d="M363.82,275.4s-69.55,3.2-39.8,61.69" transform="translate(-35.51 -29.99)"/><path class="cls-5" d="M317.82,341.69s-1-6.67,12.67-3.33" transform="translate(-35.51 -29.99)"/><path class="cls-5" d="M368.27,321.19S412.7,319,417,374.14" transform="translate(-35.51 -29.99)"/><path class="cls-5" d="M368.14,351s22.62-13,44.22.86" transform="translate(-35.51 -29.99)"/><path class="cls-5" d="M340.43,364.58s-17,22.58,6.14,30.22" transform="translate(-35.51 -29.99)"/><path class="cls-5" d="M335.76,359.06s2.54,6.77,8.73,6.09" transform="translate(-35.51 -29.99)"/><path class="cls-5" d="M364.48,346.92s4.51.76,4.27,9" transform="translate(-35.51 -29.99)"/><path class="cls-5" d="M364.12,315.14s8.33,9.61,1.39,12.08" transform="translate(-35.51 -29.99)"/><path class="cls-5" d="M430,173.92s-61.44-7.2-53.8,45.1" transform="translate(-35.51 -29.99)"/><path class="cls-5" d="M422,221.06s33.54-27.5,93.88,2.84" transform="translate(-35.51 -29.99)"/><path class="cls-5" d="M425.38,204.06s9.06-1.1,14.9,8" transform="translate(-35.51 -29.99)"/><path class="cls-5" d="M476.91,345.38s53.87-18.34,34.84-53.7" transform="translate(-35.51 -29.99)"/><path class="cls-5" d="M545.49,352s-1-21.9-32.63-32.39" transform="translate(-35.51 -29.99)"/><path class="cls-5" d="M372.21,251.51s12.21,22.15,59.49-3.54" transform="translate(-35.51 -29.99)"/><path class="cls-5" d="M548.38,274.57s-31.42-19.86-40.05-1.82" transform="translate(-35.51 -29.99)"/><path class="cls-7" d="M347.85,222.48c-4.56,10.87-11.65,18.34-15.84,16.67s-3.9-11.85.65-22.73,11.65-18.34,15.85-16.67S352.41,211.6,347.85,222.48Z" transform="translate(-35.51 -29.99)"/><path class="cls-7" d="M395,252.67c-10.34-.93-18.39-5.26-18-9.66s9.15-7.21,19.49-6.27,18.38,5.26,18,9.66S405.32,253.61,395,252.67Z" transform="translate(-35.51 -29.99)"/><path class="cls-7" d="M460.16,333.26c-4.56,10.88-11.65,18.34-15.84,16.67s-3.91-11.85.65-22.73,11.65-18.34,15.85-16.67S464.72,322.38,460.16,333.26Z" transform="translate(-35.51 -29.99)"/><path class="cls-7" d="M493.49,238.81C479.41,235,469,228.43,470.2,224.17s13.61-4.6,27.69-.78S522.4,233.78,521.18,238,507.57,242.64,493.49,238.81Z" transform="translate(-35.51 -29.99)"/><path class="cls-7" d="M342.8,305.28c-6.16,6.42-13.83,9.17-17.14,6.15s-1-10.67,5.16-17.09,13.84-9.17,17.14-6.15S349,298.86,342.8,305.28Z" transform="translate(-35.51 -29.99)"/><path class="cls-7" d="M245.89,260.93c5.63,11.63,6.87,22.59,2.77,24.47s-12-6-17.6-17.64-6.87-22.58-2.77-24.47S240.27,249.31,245.89,260.93Z" transform="translate(-35.51 -29.99)"/><g class="cls-8"><path class="cls-9" d="M125.61,448s-1.64,10.13,20.1-17.42c23.18-29.38,31.83-65,31.61-65.37-6.86-9.88-4.17-40.19-15.5-30.93C149,344.75,151,362.57,152.05,365.89,139.9,378,145,375,126.67,386.19,118.13,391.41,125.61,448,125.61,448Z" transform="translate(-35.51 -29.99)"/><path class="cls-9" d="M157.49,396.93l-22.48-16L120.94,339l-32.62,4.41L40.19,376.51s-4.64,54.11,21.07,79.05L129,453Z" transform="translate(-35.51 -29.99)"/><path class="cls-9" d="M123,350.34s-4.28-14.62-.56-20.57c0,0,7.1-3.44,12.57-6.55,0,0,3.66,9.53,16.84,14.69s7.65-9.63,4.73-16.46-9.95-26.66-20.49-24.42-27.45,16.13-35.37,20.23c-6.32,3.27-8.64,23-5.91,47.77Z" transform="translate(-35.51 -29.99)"/><path class="cls-9" d="M104.48,364.21S101,272.39,85,260.16c-9-6.91-15.37-1.81-12.58,15.3s8.83,89.59,7.16,95.36S104.48,364.21,104.48,364.21Z" transform="translate(-35.51 -29.99)"/><path class="cls-9" d="M82.42,381.79s-3.92-100.26-15-113.73C56.05,254.12,51,280.42,52.84,297.57S60,380.3,58,386,82.42,381.79,82.42,381.79Z" transform="translate(-35.51 -29.99)"/><path class="cls-9" d="M59.49,404.52S61.3,306.4,48.13,291.37s-13.57,24.74-12,41.89,4.64,38,4,43.25C39.49,382.51,59.49,404.52,59.49,404.52Z" transform="translate(-35.51 -29.99)"/><line class="cls-5" x1="18.5" y1="277.13" x2="27.77" y2="334.82"/><line class="cls-5" x1="37.84" y1="256.11" x2="47.07" y2="327.33"/><path class="cls-5" d="M116.67,352.6s-31.89-2-59,16.22" transform="translate(-35.51 -29.99)"/><path class="cls-5" d="M57.78,389.28s36.67,26.87,34.58,48.57" transform="translate(-35.51 -29.99)"/><path class="cls-5" d="M116.78,383.69s-23,21.39-11.89,45.81" transform="translate(-35.51 -29.99)"/><path class="cls-5" d="M100.7,317.26s.74,29.73,2.21,35.95" transform="translate(-35.51 -29.99)"/><path class="cls-5" d="M134,317.07a7.91,7.91,0,0,0,1,6.15" transform="translate(-35.51 -29.99)"/><path class="cls-5" d="M122.42,329.77s-2.49,4.5-8-2.11" transform="translate(-35.51 -29.99)"/><path class="cls-5" d="M152.05,365.89s-.05,4.45,5.83,6.81" transform="translate(-35.51 -29.99)"/><path class="cls-9" d="M61.26,455.56s16.79,109.55,51.09,158.3c0,0,42.9,2.94,84.71-43.88,0,0-67.72-57.39-67-134.57Z" transform="translate(-35.51 -29.99)"/><path class="cls-5" d="M61.26,455.56s3.87,8.84,21.67,7.07" transform="translate(-35.51 -29.99)"/></g><g class="cls-10"><path class="cls-9" d="M622.06,448s1.64,10.13-20.09-17.42c-23.18-29.38-31.83-65-31.61-65.37,6.85-9.88,4.17-40.19,15.49-30.93,12.86,10.52,10.82,28.34,9.77,31.66,12.15,12.1,7.1,9.12,25.38,20.3C629.54,391.41,622.06,448,622.06,448Z" transform="translate(-35.51 -29.99)"/><path class="cls-9" d="M590.19,396.93l22.48-16L626.73,339l32.62,4.41,48.13,33.08s4.64,54.11-21.07,79.05L618.73,453Z" transform="translate(-35.51 -29.99)"/><path class="cls-9" d="M624.69,350.34s4.29-14.62.56-20.57c0,0-7.1-3.44-12.57-6.55,0,0-3.65,9.53-16.84,14.69s-7.64-9.63-4.73-16.46,10-26.66,20.5-24.42,27.44,16.13,35.36,20.23c6.33,3.27,8.65,23,5.91,47.77Z" transform="translate(-35.51 -29.99)"/><path class="cls-9" d="M643.19,364.21s3.51-91.82,19.46-104c9-6.91,15.37-1.81,12.58,15.3s-8.82,89.59-7.15,95.36S643.19,364.21,643.19,364.21Z" transform="translate(-35.51 -29.99)"/><path class="cls-9" d="M665.25,381.79s3.92-100.26,15-113.73c11.42-13.94,16.51,12.36,14.64,29.51s-7.16,82.73-5.18,88.39S665.25,381.79,665.25,381.79Z" transform="translate(-35.51 -29.99)"/><path class="cls-9" d="M688.19,404.52s-1.82-98.12,11.35-113.15,13.57,24.74,12,41.89-4.65,38-4,43.25C708.19,382.51,688.19,404.52,688.19,404.52Z" transform="translate(-35.51 -29.99)"/><line class="cls-5" x1="658.16" y1="277.13" x2="648.89" y2="334.82"/><line class="cls-5" x1="638.82" y1="256.11" x2="629.59" y2="327.33"/><path class="cls-5" d="M631,352.6s31.88-2,59,16.22" transform="translate(-35.51 -29.99)"/><path class="cls-5" d="M689.89,389.28s-36.67,26.87-34.57,48.57" transform="translate(-35.51 -29.99)"/><path class="cls-5" d="M630.89,383.69s23,21.39,11.9,45.81" transform="translate(-35.51 -29.99)"/><path class="cls-5" d="M647,317.26s-.74,29.73-2.21,35.95" transform="translate(-35.51 -29.99)"/><path class="cls-5" d="M613.67,317.07a7.91,7.91,0,0,1-1,6.15" transform="translate(-35.51 -29.99)"/><path class="cls-5" d="M625.25,329.77s2.49,4.5,8-2.11" transform="translate(-35.51 -29.99)"/><path class="cls-5" d="M595.62,365.89s0,4.45-5.83,6.81" transform="translate(-35.51 -29.99)"/><path class="cls-9" d="M686.41,455.56s-16.79,109.55-51.08,158.3c0,0-42.91,2.94-84.72-43.88,0,0,67.72-57.39,67-134.57Z" transform="translate(-35.51 -29.99)"/><path class="cls-5" d="M686.41,455.56s-3.87,8.84-21.66,7.07" transform="translate(-35.51 -29.99)"/></g></g></svg>